# xmcd
#
# Track frame offsets:
#	150
#	8905
#	12565
#	21567
#	27097
#	41072
#	55430
#	73320
#	80790
#	82000
#	88860
#	95812
#	114920
#	129352
#	146960
#	154462
#
# Disc length: 2402 seconds
#
# Revision: 1
# Processed by: cddbd v1.5.2PL0 Copyright (c) Steve Scherf et al.
# Submitted via: audiograbber 1.83.01
#
DISCID=eb096010
DTITLE=Club Veg - Members and Guests and Things
DYEAR=1988
DGENRE=Alternative
TTITLE0=Product Name Beer
TTITLE1=Jonesy Hyphen Jonesy
TTITLE2=Vinyl Pants
TTITLE3=Auction
TTITLE4=Abuse Talk
TTITLE5=S.M.E.G.M.A.
TTITLE6=The Tiny Minds Of The Powerful Men
TTITLE7=I Billious
TTITLE8=Official Denial
TTITLE9=Capetown Kids
TTITLE10=Wankers and Chunkers
TTITLE11=Yuppie Rap
TTITLE12=Sausage
TTITLE13=Say ! Why You... I Oughta
TTITLE14=Dan Angel P.D.
TTITLE15=Club Vegin'
EXTD=
EXTT0=
EXTT1=
EXTT2=
EXTT3=
EXTT4=
EXTT5=
EXTT6=
EXTT7=
EXTT8=
EXTT9=
EXTT10=
EXTT11=
EXTT12=
EXTT13=
EXTT14=
EXTT15=
PLAYORDER=
